# Blender v2.93.4 OBJ File: 'turret_barrel.blend'
# www.blender.org
mtllib turret_barrel.mtl
o Cylinder
v 0.000000 0.250000 -2.000000
v 0.000000 0.250000 2.000000
v 0.048773 0.245196 -2.000000
v 0.048773 0.245196 2.000000
v 0.095671 0.230970 -2.000000
v 0.095671 0.230970 2.000000
v 0.138893 0.207867 -2.000000
v 0.138893 0.207867 2.000000
v 0.176777 0.176777 -2.000000
v 0.176777 0.176777 2.000000
v 0.207867 0.138893 -2.000000
v 0.207867 0.138892 2.000000
v 0.230970 0.095671 -2.000000
v 0.230970 0.095671 2.000000
v 0.245196 0.048773 -2.000000
v 0.245196 0.048773 2.000000
v 0.250000 0.000000 -2.000000
v 0.250000 -0.000000 2.000000
v 0.245196 -0.048772 -2.000000
v 0.245196 -0.048773 2.000000
v 0.230970 -0.095671 -2.000000
v 0.230970 -0.095671 2.000000
v 0.207867 -0.138892 -2.000000
v 0.207867 -0.138893 2.000000
v 0.176777 -0.176777 -2.000000
v 0.176777 -0.176777 2.000000
v 0.138893 -0.207867 -2.000000
v 0.138893 -0.207868 2.000000
v 0.095671 -0.230970 -2.000000
v 0.095671 -0.230970 2.000000
v 0.048773 -0.245196 -2.000000
v 0.048773 -0.245196 2.000000
v -0.000000 -0.250000 -2.000000
v -0.000000 -0.250000 2.000000
v -0.048773 -0.245196 -2.000000
v -0.048773 -0.245196 2.000000
v -0.095671 -0.230970 -2.000000
v -0.095671 -0.230970 2.000000
v -0.138893 -0.207867 -2.000000
v -0.138893 -0.207867 2.000000
v -0.176777 -0.176777 -2.000000
v -0.176777 -0.176777 2.000000
v -0.207867 -0.138893 -2.000000
v -0.207867 -0.138893 2.000000
v -0.230970 -0.095671 -2.000000
v -0.230970 -0.095671 2.000000
v -0.245196 -0.048773 -2.000000
v -0.245196 -0.048773 2.000000
v -0.250000 0.000000 -2.000000
v -0.250000 -0.000000 2.000000
v -0.245196 0.048773 -2.000000
v -0.245196 0.048773 2.000000
v -0.230970 0.095671 -2.000000
v -0.230970 0.095671 2.000000
v -0.207867 0.138893 -2.000000
v -0.207867 0.138892 2.000000
v -0.176777 0.176777 -2.000000
v -0.176777 0.176777 2.000000
v -0.138893 0.207867 -2.000000
v -0.138893 0.207867 2.000000
v -0.095671 0.230970 -2.000000
v -0.095671 0.230970 2.000000
v -0.048773 0.245196 -2.000000
v -0.048773 0.245196 2.000000
v 0.000000 0.250000 -0.893462
v 0.048773 0.245196 -0.893462
v 0.095671 0.230970 -0.893462
v 0.138893 0.207867 -0.893462
v 0.176777 0.176777 -0.893462
v 0.207867 0.138893 -0.893462
v 0.230970 0.095671 -0.893462
v 0.245196 0.048773 -0.893462
v 0.250000 0.000000 -0.893462
v 0.245196 -0.048773 -0.893462
v 0.230970 -0.095671 -0.893462
v 0.207867 -0.138893 -0.893462
v 0.176777 -0.176777 -0.893462
v 0.138893 -0.207867 -0.893462
v 0.095671 -0.230970 -0.893462
v 0.048773 -0.245196 -0.893462
v -0.000000 -0.250000 -0.893462
v -0.048773 -0.245196 -0.893462
v -0.095671 -0.230970 -0.893462
v -0.138893 -0.207867 -0.893462
v -0.176777 -0.176777 -0.893462
v -0.207867 -0.138893 -0.893462
v -0.230970 -0.095671 -0.893462
v -0.245196 -0.048773 -0.893462
v -0.250000 0.000000 -0.893462
v -0.245196 0.048773 -0.893462
v -0.230970 0.095671 -0.893462
v -0.207867 0.138893 -0.893462
v -0.176777 0.176777 -0.893462
v -0.138893 0.207867 -0.893462
v -0.095671 0.230970 -0.893462
v -0.048773 0.245196 -0.893462
v 0.062950 0.316470 -0.917326
v 0.123480 0.298108 -0.917326
v 0.179266 0.268290 -0.917326
v 0.228162 0.228162 -0.917326
v 0.268290 0.179266 -0.917326
v 0.298108 0.123480 -0.917326
v 0.316470 0.062950 -0.917326
v 0.322670 0.000000 -0.917326
v 0.316470 -0.062950 -0.917326
v 0.298108 -0.123480 -0.917326
v 0.268290 -0.179266 -0.917326
v 0.228162 -0.228162 -0.917326
v 0.179266 -0.268290 -0.917326
v 0.123480 -0.298108 -0.917326
v 0.062950 -0.316470 -0.917326
v -0.000000 -0.322670 -0.917326
v -0.062950 -0.316470 -0.917326
v -0.123480 -0.298108 -0.917326
v -0.179266 -0.268290 -0.917326
v -0.228162 -0.228162 -0.917326
v -0.268290 -0.179266 -0.917326
v -0.298108 -0.123480 -0.917326
v -0.316470 -0.062950 -0.917326
v -0.322670 0.000000 -0.917326
v -0.316470 0.062950 -0.917326
v -0.298108 0.123480 -0.917326
v -0.268290 0.179266 -0.917326
v -0.228162 0.228162 -0.917326
v -0.179266 0.268290 -0.917326
v -0.123480 0.298108 -0.917326
v -0.062950 0.316470 -0.917326
v -0.000000 0.322670 -0.917326
v 0.062950 0.316470 -1.984792
v 0.123480 0.298108 -1.984792
v 0.179266 0.268290 -1.984792
v 0.228162 0.228162 -1.984792
v 0.268290 0.179266 -1.984792
v 0.298108 0.123480 -1.984792
v 0.316470 0.062950 -1.984792
v 0.322670 0.000000 -1.984792
v 0.316470 -0.062950 -1.984792
v 0.298108 -0.123480 -1.984792
v 0.268290 -0.179265 -1.984792
v 0.228162 -0.228162 -1.984792
v 0.179266 -0.268290 -1.984792
v 0.123480 -0.298108 -1.984792
v 0.062950 -0.316469 -1.984792
v -0.000000 -0.322669 -1.984792
v -0.062950 -0.316469 -1.984792
v -0.123480 -0.298108 -1.984792
v -0.179266 -0.268290 -1.984792
v -0.228162 -0.228162 -1.984792
v -0.268290 -0.179266 -1.984792
v -0.298108 -0.123480 -1.984792
v -0.316470 -0.062950 -1.984792
v -0.322670 0.000000 -1.984792
v -0.316470 0.062950 -1.984792
v -0.298108 0.123480 -1.984792
v -0.268290 0.179266 -1.984792
v -0.228162 0.228162 -1.984792
v -0.179266 0.268290 -1.984792
v -0.123480 0.298108 -1.984792
v -0.062950 0.316470 -1.984792
v -0.000000 0.322670 -1.984792
vt 1.000000 0.638317
vt 1.000000 1.000000
vt 0.968750 1.000000
vt 0.968750 0.638317
vt 0.937500 1.000000
vt 0.937500 0.638317
vt 0.906250 1.000000
vt 0.906250 0.638317
vt 0.875000 1.000000
vt 0.875000 0.638317
vt 0.843750 1.000000
vt 0.843750 0.638317
vt 0.812500 1.000000
vt 0.812500 0.638317
vt 0.781250 1.000000
vt 0.781250 0.638317
vt 0.750000 1.000000
vt 0.750000 0.638317
vt 0.718750 1.000000
vt 0.718750 0.638317
vt 0.687500 1.000000
vt 0.687500 0.638317
vt 0.656250 1.000000
vt 0.656250 0.638317
vt 0.625000 1.000000
vt 0.625000 0.638317
vt 0.593750 1.000000
vt 0.593750 0.638317
vt 0.562500 1.000000
vt 0.562500 0.638317
vt 0.531250 1.000000
vt 0.531250 0.638317
vt 0.500000 1.000000
vt 0.500000 0.638317
vt 0.468750 1.000000
vt 0.468750 0.638317
vt 0.437500 1.000000
vt 0.437500 0.638317
vt 0.406250 1.000000
vt 0.406250 0.638317
vt 0.375000 1.000000
vt 0.375000 0.638317
vt 0.343750 1.000000
vt 0.343750 0.638317
vt 0.312500 1.000000
vt 0.312500 0.638317
vt 0.281250 1.000000
vt 0.281250 0.638317
vt 0.250000 1.000000
vt 0.250000 0.638317
vt 0.218750 1.000000
vt 0.218750 0.638317
vt 0.187500 1.000000
vt 0.187500 0.638317
vt 0.156250 1.000000
vt 0.156250 0.638317
vt 0.125000 1.000000
vt 0.125000 0.638317
vt 0.093750 1.000000
vt 0.093750 0.638317
vt 0.062500 1.000000
vt 0.062500 0.638317
vt 0.296822 0.485388
vt 0.250000 0.490000
vt 0.203178 0.485388
vt 0.158156 0.471731
vt 0.116663 0.449553
vt 0.080294 0.419706
vt 0.050447 0.383337
vt 0.028269 0.341844
vt 0.014612 0.296822
vt 0.010000 0.250000
vt 0.014612 0.203178
vt 0.028269 0.158156
vt 0.050447 0.116663
vt 0.080294 0.080294
vt 0.116663 0.050447
vt 0.158156 0.028269
vt 0.203178 0.014612
vt 0.250000 0.010000
vt 0.296822 0.014612
vt 0.341844 0.028269
vt 0.383337 0.050447
vt 0.419706 0.080294
vt 0.449553 0.116663
vt 0.471731 0.158156
vt 0.485388 0.203178
vt 0.490000 0.250000
vt 0.485388 0.296822
vt 0.471731 0.341844
vt 0.449553 0.383337
vt 0.419706 0.419706
vt 0.383337 0.449553
vt 0.341844 0.471731
vt 0.031250 1.000000
vt 0.031250 0.638317
vt 0.000000 1.000000
vt 0.000000 0.638317
vt 0.031250 0.631925
vt 0.000000 0.631925
vt 0.062500 0.631925
vt 0.093750 0.631925
vt 0.125000 0.631925
vt 0.156250 0.631925
vt 0.187500 0.631925
vt 0.218750 0.631925
vt 0.250000 0.631925
vt 0.281250 0.631925
vt 0.312500 0.631925
vt 0.343750 0.631925
vt 0.375000 0.631925
vt 0.406250 0.631925
vt 0.437500 0.631925
vt 0.468750 0.631925
vt 0.500000 0.631925
vt 0.531250 0.631925
vt 0.562500 0.631925
vt 0.593750 0.631925
vt 0.625000 0.631925
vt 0.656250 0.631925
vt 0.687500 0.631925
vt 0.718750 0.631925
vt 0.750000 0.631925
vt 0.781250 0.631925
vt 0.812500 0.631925
vt 0.843750 0.631925
vt 0.875000 0.631925
vt 0.906250 0.631925
vt 0.937500 0.631925
vt 0.968750 0.631925
vt 1.000000 0.631925
vt 1.000000 0.505310
vt 0.968750 0.505310
vt 0.937500 0.505310
vt 0.906250 0.505310
vt 0.875000 0.505310
vt 0.843750 0.505310
vt 0.812500 0.505310
vt 0.781250 0.505310
vt 0.750000 0.505310
vt 0.718750 0.505310
vt 0.687500 0.505310
vt 0.656250 0.505310
vt 0.625000 0.505310
vt 0.593750 0.505310
vt 0.562500 0.505310
vt 0.531250 0.505310
vt 0.500000 0.505310
vt 0.468750 0.505310
vt 0.437500 0.505310
vt 0.406250 0.505310
vt 0.375000 0.505310
vt 0.343750 0.505310
vt 0.312500 0.505310
vt 0.281250 0.505310
vt 0.250000 0.505310
vt 0.218750 0.505310
vt 0.187500 0.505310
vt 0.156250 0.505310
vt 0.125000 0.505310
vt 0.093750 0.505310
vt 0.062500 0.505310
vt 0.031250 0.505310
vt 0.000000 0.505310
vt 0.031250 0.500000
vt 0.000000 0.500000
vt 0.062500 0.500000
vt 0.093750 0.500000
vt 0.125000 0.500000
vt 0.156250 0.500000
vt 0.187500 0.500000
vt 0.218750 0.500000
vt 0.250000 0.500000
vt 0.281250 0.500000
vt 0.312500 0.500000
vt 0.343750 0.500000
vt 0.375000 0.500000
vt 0.406250 0.500000
vt 0.437500 0.500000
vt 0.468750 0.500000
vt 0.500000 0.500000
vt 0.531250 0.500000
vt 0.562500 0.500000
vt 0.593750 0.500000
vt 0.625000 0.500000
vt 0.656250 0.500000
vt 0.687500 0.500000
vt 0.718750 0.500000
vt 0.750000 0.500000
vt 0.781250 0.500000
vt 0.812500 0.500000
vt 0.843750 0.500000
vt 0.875000 0.500000
vt 0.906250 0.500000
vt 0.937500 0.500000
vt 0.968750 0.500000
vt 1.000000 0.500000
vn 0.0980 0.9952 0.0000
vn 0.2903 0.9569 0.0000
vn 0.4714 0.8819 0.0000
vn 0.6344 0.7730 0.0000
vn 0.7730 0.6344 0.0000
vn 0.8819 0.4714 0.0000
vn 0.9569 0.2903 0.0000
vn 0.9952 0.0980 0.0000
vn 0.9952 -0.0980 -0.0000
vn 0.9569 -0.2903 -0.0000
vn 0.8819 -0.4714 -0.0000
vn 0.7730 -0.6344 -0.0000
vn 0.6344 -0.7730 -0.0000
vn 0.4714 -0.8819 -0.0000
vn 0.2903 -0.9569 -0.0000
vn 0.0980 -0.9952 -0.0000
vn -0.0980 -0.9952 -0.0000
vn -0.2903 -0.9569 -0.0000
vn -0.4714 -0.8819 -0.0000
vn -0.6344 -0.7730 -0.0000
vn -0.7730 -0.6344 -0.0000
vn -0.8819 -0.4714 -0.0000
vn -0.9569 -0.2903 -0.0000
vn -0.9952 -0.0980 -0.0000
vn -0.9952 0.0980 0.0000
vn -0.9569 0.2903 0.0000
vn -0.8819 0.4714 0.0000
vn -0.7730 0.6344 0.0000
vn -0.6344 0.7730 0.0000
vn -0.4714 0.8819 0.0000
vn -0.0000 0.0000 1.0000
vn -0.2903 0.9569 0.0000
vn -0.0980 0.9952 0.0000
vn -0.0307 0.3119 0.9496
vn -0.0910 0.2999 0.9496
vn -0.1477 0.2764 0.9496
vn -0.1988 0.2422 0.9496
vn -0.2422 0.1988 0.9496
vn -0.2764 0.1477 0.9496
vn -0.2999 0.0910 0.9496
vn -0.3119 0.0307 0.9496
vn -0.3119 -0.0307 0.9496
vn -0.2999 -0.0910 0.9496
vn -0.2764 -0.1477 0.9496
vn -0.2422 -0.1988 0.9496
vn -0.1988 -0.2422 0.9496
vn -0.1477 -0.2764 0.9496
vn -0.0910 -0.2999 0.9496
vn -0.0307 -0.3119 0.9496
vn 0.0307 -0.3119 0.9496
vn 0.0910 -0.2999 0.9496
vn 0.1477 -0.2764 0.9496
vn 0.1988 -0.2422 0.9496
vn 0.2422 -0.1988 0.9496
vn 0.2764 -0.1477 0.9496
vn 0.2999 -0.0910 0.9496
vn 0.3119 -0.0307 0.9496
vn 0.3119 0.0307 0.9496
vn 0.2999 0.0910 0.9496
vn 0.2764 0.1477 0.9496
vn 0.2422 0.1988 0.9496
vn 0.1988 0.2422 0.9496
vn 0.1477 0.2764 0.9496
vn 0.0910 0.2999 0.9496
vn 0.0307 0.3119 0.9496
vn -0.0202 0.2048 -0.9786
vn -0.0597 0.1969 -0.9786
vn -0.0970 0.1815 -0.9786
vn -0.1305 0.1591 -0.9786
vn -0.1591 0.1306 -0.9786
vn -0.1815 0.0970 -0.9786
vn -0.1969 0.0597 -0.9786
vn -0.2048 0.0202 -0.9786
vn -0.2048 -0.0202 -0.9786
vn -0.1969 -0.0597 -0.9786
vn -0.1815 -0.0970 -0.9786
vn -0.1591 -0.1306 -0.9786
vn -0.1305 -0.1591 -0.9786
vn -0.0970 -0.1815 -0.9786
vn -0.0597 -0.1969 -0.9786
vn -0.0202 -0.2048 -0.9786
vn 0.0202 -0.2048 -0.9786
vn 0.0597 -0.1969 -0.9786
vn 0.0970 -0.1815 -0.9786
vn 0.1305 -0.1591 -0.9786
vn 0.1591 -0.1306 -0.9786
vn 0.1815 -0.0970 -0.9786
vn 0.1969 -0.0597 -0.9786
vn 0.2048 -0.0202 -0.9786
vn 0.2048 0.0202 -0.9786
vn 0.1969 0.0597 -0.9786
vn 0.1815 0.0970 -0.9786
vn 0.1591 0.1306 -0.9786
vn 0.1305 0.1591 -0.9786
vn 0.0970 0.1815 -0.9786
vn 0.0597 0.1969 -0.9786
vn 0.0202 0.2048 -0.9786
usemtl None
s off
f 65/1/1 2/2/1 4/3/1 66/4/1
f 66/4/2 4/3/2 6/5/2 67/6/2
f 67/6/3 6/5/3 8/7/3 68/8/3
f 68/8/4 8/7/4 10/9/4 69/10/4
f 69/10/5 10/9/5 12/11/5 70/12/5
f 70/12/6 12/11/6 14/13/6 71/14/6
f 71/14/7 14/13/7 16/15/7 72/16/7
f 72/16/8 16/15/8 18/17/8 73/18/8
f 73/18/9 18/17/9 20/19/9 74/20/9
f 74/20/10 20/19/10 22/21/10 75/22/10
f 75/22/11 22/21/11 24/23/11 76/24/11
f 76/24/12 24/23/12 26/25/12 77/26/12
f 77/26/13 26/25/13 28/27/13 78/28/13
f 78/28/14 28/27/14 30/29/14 79/30/14
f 79/30/15 30/29/15 32/31/15 80/32/15
f 80/32/16 32/31/16 34/33/16 81/34/16
f 81/34/17 34/33/17 36/35/17 82/36/17
f 82/36/18 36/35/18 38/37/18 83/38/18
f 83/38/19 38/37/19 40/39/19 84/40/19
f 84/40/20 40/39/20 42/41/20 85/42/20
f 85/42/21 42/41/21 44/43/21 86/44/21
f 86/44/22 44/43/22 46/45/22 87/46/22
f 87/46/23 46/45/23 48/47/23 88/48/23
f 88/48/24 48/47/24 50/49/24 89/50/24
f 89/50/25 50/49/25 52/51/25 90/52/25
f 90/52/26 52/51/26 54/53/26 91/54/26
f 91/54/27 54/53/27 56/55/27 92/56/27
f 92/56/28 56/55/28 58/57/28 93/58/28
f 93/58/29 58/57/29 60/59/29 94/60/29
f 94/60/30 60/59/30 62/61/30 95/62/30
f 4/63/31 2/64/31 64/65/31 62/66/31 60/67/31 58/68/31 56/69/31 54/70/31 52/71/31 50/72/31 48/73/31 46/74/31 44/75/31 42/76/31 40/77/31 38/78/31 36/79/31 34/80/31 32/81/31 30/82/31 28/83/31 26/84/31 24/85/31 22/86/31 20/87/31 18/88/31 16/89/31 14/90/31 12/91/31 10/92/31 8/93/31 6/94/31
f 95/62/32 62/61/32 64/95/32 96/96/32
f 96/96/33 64/95/33 2/97/33 65/98/33
f 127/99/34 96/96/34 65/98/34 128/100/34
f 126/101/35 95/62/35 96/96/35 127/99/35
f 125/102/36 94/60/36 95/62/36 126/101/36
f 124/103/37 93/58/37 94/60/37 125/102/37
f 123/104/38 92/56/38 93/58/38 124/103/38
f 122/105/39 91/54/39 92/56/39 123/104/39
f 121/106/40 90/52/40 91/54/40 122/105/40
f 120/107/41 89/50/41 90/52/41 121/106/41
f 119/108/42 88/48/42 89/50/42 120/107/42
f 118/109/43 87/46/43 88/48/43 119/108/43
f 117/110/44 86/44/44 87/46/44 118/109/44
f 116/111/45 85/42/45 86/44/45 117/110/45
f 115/112/46 84/40/46 85/42/46 116/111/46
f 114/113/47 83/38/47 84/40/47 115/112/47
f 113/114/48 82/36/48 83/38/48 114/113/48
f 112/115/49 81/34/49 82/36/49 113/114/49
f 111/116/50 80/32/50 81/34/50 112/115/50
f 110/117/51 79/30/51 80/32/51 111/116/51
f 109/118/52 78/28/52 79/30/52 110/117/52
f 108/119/53 77/26/53 78/28/53 109/118/53
f 107/120/54 76/24/54 77/26/54 108/119/54
f 106/121/55 75/22/55 76/24/55 107/120/55
f 105/122/56 74/20/56 75/22/56 106/121/56
f 104/123/57 73/18/57 74/20/57 105/122/57
f 103/124/58 72/16/58 73/18/58 104/123/58
f 102/125/59 71/14/59 72/16/59 103/124/59
f 101/126/60 70/12/60 71/14/60 102/125/60
f 100/127/61 69/10/61 70/12/61 101/126/61
f 99/128/62 68/8/62 69/10/62 100/127/62
f 98/129/63 67/6/63 68/8/63 99/128/63
f 97/130/64 66/4/64 67/6/64 98/129/64
f 128/131/65 65/1/65 66/4/65 97/130/65
f 160/132/1 128/131/1 97/130/1 129/133/1
f 129/133/2 97/130/2 98/129/2 130/134/2
f 130/134/3 98/129/3 99/128/3 131/135/3
f 131/135/4 99/128/4 100/127/4 132/136/4
f 132/136/5 100/127/5 101/126/5 133/137/5
f 133/137/6 101/126/6 102/125/6 134/138/6
f 134/138/7 102/125/7 103/124/7 135/139/7
f 135/139/8 103/124/8 104/123/8 136/140/8
f 136/140/9 104/123/9 105/122/9 137/141/9
f 137/141/10 105/122/10 106/121/10 138/142/10
f 138/142/11 106/121/11 107/120/11 139/143/11
f 139/143/12 107/120/12 108/119/12 140/144/12
f 140/144/13 108/119/13 109/118/13 141/145/13
f 141/145/14 109/118/14 110/117/14 142/146/14
f 142/146/15 110/117/15 111/116/15 143/147/15
f 143/147/16 111/116/16 112/115/16 144/148/16
f 144/148/17 112/115/17 113/114/17 145/149/17
f 145/149/18 113/114/18 114/113/18 146/150/18
f 146/150/19 114/113/19 115/112/19 147/151/19
f 147/151/20 115/112/20 116/111/20 148/152/20
f 148/152/21 116/111/21 117/110/21 149/153/21
f 149/153/22 117/110/22 118/109/22 150/154/22
f 150/154/23 118/109/23 119/108/23 151/155/23
f 151/155/24 119/108/24 120/107/24 152/156/24
f 152/156/25 120/107/25 121/106/25 153/157/25
f 153/157/26 121/106/26 122/105/26 154/158/26
f 154/158/27 122/105/27 123/104/27 155/159/27
f 155/159/28 123/104/28 124/103/28 156/160/28
f 156/160/29 124/103/29 125/102/29 157/161/29
f 157/161/30 125/102/30 126/101/30 158/162/30
f 158/162/32 126/101/32 127/99/32 159/163/32
f 159/163/33 127/99/33 128/100/33 160/164/33
f 63/165/66 159/163/66 160/164/66 1/166/66
f 61/167/67 158/162/67 159/163/67 63/165/67
f 59/168/68 157/161/68 158/162/68 61/167/68
f 57/169/69 156/160/69 157/161/69 59/168/69
f 55/170/70 155/159/70 156/160/70 57/169/70
f 53/171/71 154/158/71 155/159/71 55/170/71
f 51/172/72 153/157/72 154/158/72 53/171/72
f 49/173/73 152/156/73 153/157/73 51/172/73
f 47/174/74 151/155/74 152/156/74 49/173/74
f 45/175/75 150/154/75 151/155/75 47/174/75
f 43/176/76 149/153/76 150/154/76 45/175/76
f 41/177/77 148/152/77 149/153/77 43/176/77
f 39/178/78 147/151/78 148/152/78 41/177/78
f 37/179/79 146/150/79 147/151/79 39/178/79
f 35/180/80 145/149/80 146/150/80 37/179/80
f 33/181/81 144/148/81 145/149/81 35/180/81
f 31/182/82 143/147/82 144/148/82 33/181/82
f 29/183/83 142/146/83 143/147/83 31/182/83
f 27/184/84 141/145/84 142/146/84 29/183/84
f 25/185/85 140/144/85 141/145/85 27/184/85
f 23/186/86 139/143/86 140/144/86 25/185/86
f 21/187/87 138/142/87 139/143/87 23/186/87
f 19/188/88 137/141/88 138/142/88 21/187/88
f 17/189/89 136/140/89 137/141/89 19/188/89
f 15/190/90 135/139/90 136/140/90 17/189/90
f 13/191/91 134/138/91 135/139/91 15/190/91
f 11/192/92 133/137/92 134/138/92 13/191/92
f 9/193/93 132/136/93 133/137/93 11/192/93
f 7/194/94 131/135/94 132/136/94 9/193/94
f 5/195/95 130/134/95 131/135/95 7/194/95
f 3/196/96 129/133/96 130/134/96 5/195/96
f 1/197/97 160/132/97 129/133/97 3/196/97
